<?xml version="1.0" encoding="UTF-8"?>
<svg width="72px" height="20px" viewBox="0 0 72 20" version="1.1" xmlns="http://www.w3.org/2000/svg" xmlns:xlink="http://www.w3.org/1999/xlink">
    <!-- Generator: Sketch 44.1 (41455) - http://www.bohemiancoding.com/sketch -->
    <title>Page 1</title>
    <desc>Created with Sketch.</desc>
    <defs>
        <polygon id="path-1" points="0 19.8595844 71.952 19.8595844 71.952 0.240509879 0 0.240509879"></polygon>
    </defs>
    <g id="Page-1" stroke="none" stroke-width="1" fill="none" fill-rule="evenodd">
        <g id="首页-copy" transform="translate(-460.000000, -1998.000000)">
            <g id="Page-1" transform="translate(460.000000, 1998.000000)">
                <g id="Group-3" transform="translate(0.000000, 0.139746)" fill="#005BAC">
                    <path d="M0.007104,8.74812899 L-9.6e-05,8.74812899 L-9.6e-05,19.7200545 L3.596784,19.7200545 L3.584544,1.89187798 C1.535424,3.46681968 0.007104,6.39281077 0.007104,8.74812899 M9.164544,0.100739514 C7.593504,0.100739514 6.118224,0.496819676 4.824384,1.19446907 L4.824384,5.83969336 C5.844624,4.56968769 7.405344,3.75708607 9.155424,3.75708607 C12.227904,3.75708607 14.719344,6.25405045 14.719344,9.3301047 C14.719344,12.4090448 12.227904,14.9033638 9.155424,14.9033638 C7.405344,14.9033638 5.844624,14.0910027 4.824384,12.8234019 L4.830864,19.7188521 L6.033744,19.7188521 L6.033744,17.9406998 C7.012704,18.2930116 8.064384,18.4904504 9.164544,18.4904504 C14.235744,18.4904504 18.340464,14.3750164 18.340464,9.29475328 C18.340464,4.21569255 14.235744,0.100739514 9.164544,0.100739514" id="Fill-1"></path>
                </g>
                <path d="M9.155472,7.02552899 C10.269552,7.02552899 11.205312,7.77945206 11.488992,8.80464316 L13.356192,8.80464316 C13.035552,6.76796866 11.279952,5.21082291 9.155472,5.21082291 C6.808752,5.21082291 4.904832,7.11595166 4.904832,9.46982696 C4.904832,11.8210569 6.808752,13.7307549 9.155472,13.7307549 C11.290992,13.7307549 13.057632,12.1517249 13.360992,10.0998998 L11.486832,10.0998998 C11.205312,11.1238885 10.269552,11.8763687 9.155472,11.8763687 C7.817712,11.8763687 6.731472,10.7922585 6.731472,9.4505881 C6.731472,8.111563 7.817712,7.02552899 9.155472,7.02552899" id="Fill-4" fill="#005BAC"></path>
                <path d="M26.738976,2.03157619 L25.512096,2.03157619 C25.500576,2.79656162 25.447776,3.49878024 25.361616,4.14135838 L21.950256,4.14135838 L21.950256,4.26112032 L21.950256,5.15837296 L25.154976,5.15837296 C24.992736,5.93057296 24.714816,6.74798429 24.408336,7.28210332 C23.809056,8.34336729 23.147376,9.00061506 21.950256,9.57609765 L21.950256,10.7867033 C23.599776,10.172262 24.536736,9.22522883 25.153776,8.25534947 C25.449456,8.74209279 25.693296,9.31132275 25.829136,9.76656243 L25.916016,9.76656243 L27.056736,9.76656243 L27.140976,9.76656243 C26.920176,9.05207903 26.381376,7.8340183 25.776336,7.08177862 C26.019696,6.5034102 26.217456,5.82524016 26.358336,5.15837296 L26.522976,5.15837296 C27.144816,8.57543611 29.495856,10.3280968 30.772176,10.7867033 L30.772176,9.46547417 C29.858256,9.01672761 28.300176,7.76163206 27.735936,5.15837296 L30.772176,5.15837296 L30.772176,4.26112032 L30.772176,4.14135838 L26.588016,4.14135838 C26.680656,3.49156567 26.735136,2.79295433 26.738976,2.03157619" id="Fill-6" fill="#005BAC"></path>
                <polygon id="Fill-8" fill="#005BAC" points="37.087344 3.20089045 40.463424 3.20089045 40.463424 2.18579976 32.459184 2.18579976 32.459184 3.20089045 35.844144 3.20089045 35.841504 7.15159166 32.046864 7.15159166 32.046864 8.25542162 35.841504 8.25542162 35.836944 10.938522 37.078224 10.938522 37.080624 8.25542162 40.876464 8.25542162 40.876464 7.15159166 37.083744 7.15159166"></polygon>
                <path d="M34.184136,3.75737466 L32.912856,3.75737466 C33.143016,4.89920138 33.399336,5.78731555 33.835416,6.59414551 L35.090856,6.59414551 C34.589016,5.43500381 34.379496,4.72893741 34.184136,3.75737466" id="Fill-10" fill="#005BAC"></path>
                <path d="M39.0882,6.59412146 C39.52524,5.7872915 39.78012,4.89917733 40.00764,3.75735061 L38.7426,3.75735061 C38.54316,4.72891336 38.3334,5.43497976 37.83348,6.59412146 L39.0882,6.59412146 Z" id="Fill-12" fill="#005BAC"></path>
                <path d="M59.032344,5.57614494 L59.508024,5.57614494 C60.378984,5.57614494 61.032984,5.00980081 61.119384,4.08898057 C61.211064,3.09360972 61.167624,2.18577571 61.167624,2.18577571 L55.961064,2.18577571 L55.963704,2.29423482 L55.961064,2.29423482 L55.961064,5.57614494 L56.670504,5.57614494 L57.051144,5.57614494 L57.881064,5.57614494 L57.881064,6.20068664 L55.330344,6.20068664 L55.330344,7.21770121 L56.610504,7.21770121 C56.535864,8.129383 56.184024,9.06030364 55.330344,9.69205992 L55.330344,10.7742462 C56.742744,10.5876291 57.702984,8.3515919 57.652344,7.21770121 L57.881064,7.21770121 L57.881064,10.7814607 L59.032344,10.7814607 L59.032344,7.21770121 L59.269944,7.21770121 C59.285544,8.39776518 60.101064,10.4325158 61.583064,10.7742462 L61.583064,9.69205992 C60.813864,9.17525587 60.399624,8.15391255 60.311544,7.21770121 L61.583064,7.21770121 L61.583064,6.20068664 L59.032344,6.20068664 L59.032344,5.57614494 Z M57.051144,4.6009749 L57.051144,3.12823968 L60.019224,3.12823968 C60.019224,3.12823968 60.045864,3.23525587 60.003624,3.75446478 C59.970984,4.17411255 59.751384,4.59279838 59.176104,4.59736761 L59.196024,4.6009749 L57.051144,4.6009749 Z" id="Fill-14" fill="#005BAC"></path>
                <path d="M54.45876,2.18575166 C54.16212,3.34681725 53.75004,4.16326664 52.44156,5.04440672 L52.44156,6.30431198 C52.905,6.07585045 53.30652,5.81636623 53.66364,5.53812413 L53.66364,10.7816772 L54.79308,10.7816772 L54.79308,4.36286988 C55.26756,3.68373789 55.54428,2.94328202 55.6446,2.18575166 L54.45876,2.18575166 Z" id="Fill-16" fill="#005BAC"></path>
                <path d="M70.076088,2.18575166 L69.896808,2.19464964 L69.894648,2.18575166 L68.564568,2.18575166 L67.596168,2.18286583 C67.491288,3.36196785 66.852648,4.72167474 66.241368,5.23078324 L66.569448,6.05228283 C67.582968,5.4758383 68.224968,4.10170227 68.468328,3.12821563 L69.253608,3.12821563 C69.863928,4.94725045 71.246808,5.87985449 71.951928,6.15905854 L71.951928,4.99534761 C71.722728,4.87943344 70.439208,4.02378486 70.076088,2.18575166" id="Fill-18" fill="#005BAC"></path>
                <mask id="mask-2" fill="white">
                    <use xlink:href="#path-1"></use>
                </mask>
                <g id="Clip-21"></g>
                <polygon id="Fill-20" fill="#005BAC" mask="url(#mask-2)" points="67.79952 5.89072445 70.1724 5.89072445 70.1724 4.98601676 67.79952 4.98601676"></polygon>
                <path d="M65.7936,5.28729741 L65.78064,5.28729741 C66.48096,4.19236543 66.53856,3.44180915 66.43872,2.18575166 L66.29136,2.18575166 L66.11016,2.18575166 L65.4516,2.18575166 L64.44264,2.18575166 L63.50424,2.18575166 L63.40368,2.18575166 L63.40368,10.7816772 L64.44264,10.7816772 L64.44264,3.13759457 L65.358,3.13759457 C65.37528,3.9042634 65.1564,4.76159538 64.65864,5.28729741 L64.67376,5.29619538 C65.02488,5.83464316 65.64672,7.11619215 64.78008,9.24617514 L65.95968,9.24617514 C66.55632,7.84486421 66.39792,6.31224802 65.7936,5.28729741" id="Fill-22" fill="#005BAC" mask="url(#mask-2)"></path>
                <path d="M66.770712,6.49266049 C66.945672,7.25139328 67.139352,8.33790826 67.180872,9.22890826 L68.163912,9.22890826 C68.096232,8.16307506 67.994952,7.48418356 67.767432,6.49266049 L66.770712,6.49266049 Z" id="Fill-23" fill="#005BAC" mask="url(#mask-2)"></path>
                <path d="M71.4486,6.49266049 L70.4514,6.49266049 C70.28772,7.27015117 69.96372,8.32011231 69.627,9.21544105 C69.55932,8.15658194 69.4554,7.47889287 69.23196,6.49266049 L68.23476,6.49266049 C68.40636,7.25139328 68.60004,8.33790826 68.6442,9.22890826 L69.62148,9.22890826 C69.54948,9.41648721 69.47988,9.59781352 69.40812,9.76663457 L66.07356,9.76663457 L66.07356,10.7814848 L71.93844,10.7814848 L71.93844,9.76663457 L70.41156,9.76663457 C70.8774,8.70224429 71.24676,7.64001838 71.4486,6.49266049" id="Fill-24" fill="#005BAC" mask="url(#mask-2)"></path>
                <path d="M48.5286,6.5289498 L50.80308,6.5289498 L50.80308,5.51385911 L48.5286,5.51385911 L48.5286,4.23231012 L51.00324,4.23231012 L51.00324,3.216017 L49.98036,3.216017 C50.12892,2.84735223 50.2734,2.4558413 50.4174,2.03162429 L49.23276,2.03162429 C49.0842,2.4558413 48.94284,2.83460648 48.7842,3.216017 L47.02788,3.216017 C46.875,2.83460648 46.73412,2.4558413 46.59204,2.03162429 L45.40644,2.03162429 C45.54828,2.4558413 45.68676,2.84735223 45.83172,3.216017 L44.81436,3.216017 L44.81436,4.23231012 L47.28804,4.23231012 L47.28804,5.51385911 L45.01164,5.51385911 L45.01164,6.5289498 L47.28804,6.5289498 L47.28804,7.99879919 L44.66316,7.99879919 L44.66316,9.01581377 L47.28804,9.01581377 L47.28804,10.938498 L48.5286,10.938498 L48.5286,9.01581377 L51.27828,9.01581377 L51.27828,7.99879919 L48.5286,7.99879919 L48.5286,6.5289498 Z" id="Fill-25" fill="#005BAC" mask="url(#mask-2)"></path>
                <path d="M42.236808,4.58026907 C42.596808,5.15286583 43.060248,6.01500753 43.286808,6.59217352 L44.508888,6.59217352 C44.273448,5.95416462 43.922088,5.27238729 43.475208,4.58026907 L42.236808,4.58026907 Z" id="Fill-26" fill="#005BAC" mask="url(#mask-2)"></path>
                <path d="M42.236808,2.18575166 C42.596808,2.76941077 43.060248,3.64477919 43.286808,4.23228607 L44.508888,4.23228607 C44.273448,3.58225287 43.922088,2.89085611 43.475208,2.18575166 L42.236808,2.18575166 Z" id="Fill-27" fill="#005BAC" mask="url(#mask-2)"></path>
                <path d="M43.369536,7.15151951 L43.286976,7.15151951 C43.106016,8.23009846 42.652896,9.78243449 42.259296,10.7867033 L43.498896,10.7867033 C44.000016,9.55950413 44.208096,8.56822154 44.509296,7.15151951 L44.429856,7.15151951 L43.369536,7.15151951 Z" id="Fill-28" fill="#005BAC" mask="url(#mask-2)"></path>
                <path d="M27.953976,13.2061832 L27.953976,18.6086973 L29.108136,18.6086973 L29.108136,13.980788 C30.616536,13.6962933 31.282776,14.1892892 31.242936,14.998524 C31.183176,16.1441985 30.178536,16.3991135 29.224296,16.2394309 L29.591016,17.1602512 C31.207656,17.2792917 32.456616,16.5022819 32.418936,14.8705856 C32.387496,13.5714811 31.288296,12.4544245 27.953976,13.2061832" id="Fill-29" fill="#005BAC" mask="url(#mask-2)"></path>
                <path d="M40.807344,17.425002 C40.451664,17.6007972 39.998064,17.7114206 39.604224,17.7258498 C38.427504,17.7660109 37.610544,17.0161761 37.628064,15.8325049 C37.644624,14.6950069 38.395104,13.9057324 39.525264,13.8968344 C39.882384,13.8937081 40.292304,14.0036101 40.612464,14.1368393 L40.657824,13.2287648 C40.267824,13.1111672 39.766704,13.0390215 39.351024,13.0390215 C37.716624,13.0390215 36.381264,14.1385227 36.344064,15.8596798 C36.308544,17.7106992 37.671264,18.6988555 39.436944,18.6269502 C39.882384,18.6086733 40.455504,18.5192126 40.854864,18.3376457 L40.807344,17.425002 Z" id="Fill-30" fill="#005BAC" mask="url(#mask-2)"></path>
                <path d="M25.257264,17.7258498 C24.082224,17.7660109 23.265024,17.0161761 23.281104,15.8325049 C23.297424,14.6950069 24.046704,13.9057324 25.178304,13.8968344 C25.534944,13.8937081 25.945104,14.0036101 26.263824,14.1368393 L26.309904,13.2287648 C25.920864,13.1111672 25.420704,13.0390215 25.003824,13.0390215 C23.369664,13.0390215 22.032144,14.1385227 21.997824,15.8596798 C21.961344,17.7109397 23.322144,18.6988555 25.089264,18.6269502 C25.534944,18.6086733 26.108544,18.5192126 26.507904,18.3376457 L26.459904,17.425002 C26.104224,17.6007972 25.650624,17.7114206 25.257264,17.7258498" id="Fill-31" fill="#005BAC" mask="url(#mask-2)"></path>
                <polygon id="Fill-32" fill="#005BAC" mask="url(#mask-2)" points="33.7728 18.6085771 34.962 18.6085771 34.962 13.1091471 33.7728 13.1091471"></polygon>
            </g>
        </g>
    </g>
</svg>